<svg id="visual" viewBox="0 0 900 450" width="900" height="450" xmlns="http://www.w3.org/2000/svg" xmlns:xlink="http://www.w3.org/1999/xlink" version="1.1"><rect x="0" y="0" width="900" height="450" fill="#f7fee7"></rect><path d="M0 351L30 353.2C60 355.3 120 359.7 180 365.2C240 370.7 300 377.3 360 373.5C420 369.7 480 355.3 540 349.3C600 343.3 660 345.7 720 346.5C780 347.3 840 346.7 870 346.3L900 346L900 451L870 451C840 451 780 451 720 451C660 451 600 451 540 451C480 451 420 451 360 451C300 451 240 451 180 451C120 451 60 451 30 451L0 451Z" fill="#99f6e4"></path><path d="M0 378L30 382C60 386 120 394 180 395.7C240 397.3 300 392.7 360 393.8C420 395 480 402 540 403.8C600 405.7 660 402.3 720 400.7C780 399 840 399 870 399L900 399L900 451L870 451C840 451 780 451 720 451C660 451 600 451 540 451C480 451 420 451 360 451C300 451 240 451 180 451C120 451 60 451 30 451L0 451Z" fill="#55b59b"></path><path d="M0 403L30 403C60 403 120 403 180 407.2C240 411.3 300 419.7 360 418.7C420 417.7 480 407.3 540 408.3C600 409.3 660 421.7 720 422.8C780 424 840 414 870 409L900 404L900 451L870 451C840 451 780 451 720 451C660 451 600 451 540 451C480 451 420 451 360 451C300 451 240 451 180 451C120 451 60 451 30 451L0 451Z" fill="#047857"></path></svg>